<?xml version="1.0" encoding="UTF-8" standalone="no"?>
<!DOCTYPE svg PUBLIC "-//W3C//DTD SVG 1.1//EN"
 "http://www.w3.org/Graphics/SVG/1.1/DTD/svg11.dtd">
<!-- Generated by graphviz version 2.40.1 (20161225.0304)
 -->
<!-- Title: G Pages: 1 -->
<svg width="152pt" height="300pt"
 viewBox="0.00 0.00 151.83 299.60" xmlns="http://www.w3.org/2000/svg" xmlns:xlink="http://www.w3.org/1999/xlink">
<g id="graph0" class="graph" transform="scale(1 1) rotate(0) translate(4 295.6)">
<title>G</title>
<polygon fill="#ffffff" stroke="transparent" points="-4,4 -4,-295.6 147.8292,-295.6 147.8292,4 -4,4"/>
<!-- I -->
<g id="node1" class="node">
<title>I</title>
<ellipse fill="#000000" stroke="#000000" cx="31.6802" cy="-289.8" rx="1.8" ry="1.8"/>
</g>
<!-- A -->
<g id="node2" class="node">
<title>A</title>
<ellipse fill="none" stroke="#000000" cx="31.6802" cy="-234" rx="31.8613" ry="18"/>
<text text-anchor="middle" x="31.6802" y="-229.8" font-family="Times,serif" font-size="14.00" fill="#000000">(1) A</text>
</g>
<!-- I&#45;&gt;A -->
<g id="edge1" class="edge">
<title>I&#45;&gt;A</title>
<path fill="none" stroke="#000000" stroke-dasharray="1,5" d="M31.6802,-287.9434C31.6802,-283.7589 31.6802,-273.1154 31.6802,-262.3776"/>
<polygon fill="#000000" stroke="#000000" points="35.1803,-262.2613 31.6802,-252.2614 28.1803,-262.2614 35.1803,-262.2613"/>
</g>
<!-- C -->
<g id="node4" class="node">
<title>C</title>
<ellipse fill="none" stroke="#000000" cx="71.6802" cy="-162" rx="31.2988" ry="18"/>
<text text-anchor="middle" x="71.6802" y="-157.8" font-family="Times,serif" font-size="14.00" fill="#000000">(2) C</text>
</g>
<!-- A&#45;&gt;C -->
<g id="edge2" class="edge">
<title>A&#45;&gt;C</title>
<path fill="none" stroke="#000000" d="M41.363,-216.5708C46.0798,-208.0807 51.8508,-197.6929 57.0872,-188.2674"/>
<polygon fill="#000000" stroke="#000000" points="60.2895,-189.71 62.0864,-179.2687 54.1704,-186.3105 60.2895,-189.71"/>
</g>
<!-- B -->
<g id="node3" class="node">
<title>B</title>
<ellipse fill="none" stroke="#000000" cx="112.6802" cy="-234" rx="31.2988" ry="18"/>
<text text-anchor="middle" x="112.6802" y="-229.8" font-family="Times,serif" font-size="14.00" fill="#000000">(2) B</text>
</g>
<!-- B&#45;&gt;C -->
<g id="edge3" class="edge">
<title>B&#45;&gt;C</title>
<path fill="none" stroke="#000000" d="M102.7552,-216.5708C97.8702,-207.9922 91.8819,-197.4762 86.4704,-187.9732"/>
<polygon fill="#000000" stroke="#000000" points="89.5036,-186.2266 81.5137,-179.2687 83.4207,-189.6905 89.5036,-186.2266"/>
</g>
<!-- D -->
<g id="node5" class="node">
<title>D</title>
<ellipse fill="none" stroke="#000000" cx="41.6802" cy="-90" rx="31.8613" ry="18"/>
<text text-anchor="middle" x="41.6802" y="-85.8" font-family="Times,serif" font-size="14.00" fill="#000000">(1) D</text>
</g>
<!-- C&#45;&gt;D -->
<g id="edge4" class="edge">
<title>C&#45;&gt;D</title>
<path fill="none" stroke="#000000" d="M64.2644,-144.2022C60.8495,-136.0064 56.7228,-126.1024 52.9362,-117.0145"/>
<polygon fill="#000000" stroke="#000000" points="56.0876,-115.4776 49.0106,-107.593 49.626,-118.17 56.0876,-115.4776"/>
</g>
<!-- E -->
<g id="node7" class="node">
<title>E</title>
<ellipse fill="none" stroke="#000000" cx="101.6802" cy="-18" rx="27" ry="18"/>
<text text-anchor="middle" x="101.6802" y="-13.8" font-family="Times,serif" font-size="14.00" fill="#000000">E</text>
</g>
<!-- C&#45;&gt;E -->
<g id="edge6" class="edge">
<title>C&#45;&gt;E</title>
<path fill="none" stroke="#000000" d="M75.419,-144.0535C80.539,-119.4774 89.7842,-75.1008 95.8265,-46.0974"/>
<polygon fill="#000000" stroke="#000000" points="99.281,-46.6764 97.8942,-36.1727 92.4281,-45.2487 99.281,-46.6764"/>
</g>
<!-- D2 -->
<g id="node6" class="node">
<title>D2</title>
<ellipse fill="none" stroke="#000000" cx="29.6802" cy="-18" rx="27" ry="18"/>
<text text-anchor="middle" x="29.6802" y="-13.8" font-family="Times,serif" font-size="14.00" fill="#000000">D</text>
</g>
<!-- D&#45;&gt;D2 -->
<g id="edge7" class="edge">
<title>D&#45;&gt;D2</title>
<path fill="none" stroke="#000000" stroke-width="2" d="M38.6521,-71.8314C37.3489,-64.0125 35.7955,-54.6923 34.3505,-46.0221"/>
<polygon fill="#000000" stroke="#000000" stroke-width="2" points="37.7622,-45.2019 32.6657,-35.9134 30.8574,-46.3528 37.7622,-45.2019"/>
</g>
<!-- D&#45;&gt;E -->
<g id="edge5" class="edge">
<title>D&#45;&gt;E</title>
<path fill="none" stroke="#000000" d="M55.2951,-73.6621C63.1523,-64.2334 73.1726,-52.2091 81.8879,-41.7507"/>
<polygon fill="#000000" stroke="#000000" points="84.8184,-43.7013 88.5315,-33.7784 79.4408,-39.22 84.8184,-43.7013"/>
</g>
</g>
</svg>
